# This file uses centimeters as units for non-parametric coordinates.

mtllib star.mtl
g default
v 0.902619 -0.000000 0.025093
v 0.009634 -0.000000 3.832769
v 0.009634 -0.000001 -3.964321
v 0.009634 0.773761 -1.504245
v 0.009634 2.125212 -2.133873
v 0.009634 1.483734 -0.701474
v 0.009634 3.929100 0.037114
v 0.009634 1.483732 0.771446
v 0.009634 2.125212 2.119543
v 0.009634 0.773760 1.402402
v 0.009634 -0.773761 -1.504246
v 0.009634 -2.125212 -2.133875
v 0.009634 -1.483733 -0.701475
v 0.009634 -3.929100 0.037114
v 0.009634 -1.483731 0.771447
v 0.009634 -2.125213 2.119543
v 0.009634 -0.773761 1.402401
v -0.883350 0.000000 0.025093
vt 0.392262 0.546107
vt 0.392262 0.546107
vt 0.391594 0.581727
vt 0.391594 0.581727
vt 0.392883 0.509763
vt 0.392883 0.509763
vt 0.384665 0.529989
vt 0.372749 0.525297
vt 0.376604 0.538090
vt 0.356032 0.545234
vt 0.376320 0.553870
vt 0.371449 0.565742
vt 0.383841 0.561343
vt 0.384665 0.529989
vt 0.372749 0.525297
vt 0.376604 0.538090
vt 0.356032 0.545234
vt 0.376320 0.553870
vt 0.371449 0.565742
vt 0.383841 0.561343
vt 0.392883 0.509763
vt 0.384665 0.529989
vt 0.392262 0.546107
vt 0.372749 0.525297
vt 0.376604 0.538090
vt 0.356032 0.545234
vt 0.376320 0.553870
vt 0.371449 0.565742
vt 0.383841 0.561343
vt 0.391594 0.581727
vt 0.384665 0.529989
vt 0.392883 0.509763
vt 0.392262 0.546107
vt 0.372749 0.525297
vt 0.376604 0.538090
vt 0.356032 0.545234
vt 0.376320 0.553870
vt 0.371449 0.565742
vt 0.383841 0.561343
vt 0.391594 0.581727
vn 0.801522 0.570416 -0.179412
vn 0.801522 0.570416 -0.179412
vn 0.801522 0.570416 -0.179412
vn 0.764638 -0.272160 -0.584172
vn 0.764638 -0.272160 -0.584172
vn 0.764638 -0.272160 -0.584172
vn 0.763939 0.588928 0.263743
vn 0.763939 0.588928 0.263743
vn 0.763939 0.588928 0.263743
vn 0.783121 0.179805 -0.595309
vn 0.783121 0.179805 -0.595309
vn 0.783121 0.179805 -0.595309
vn 0.787640 0.177205 0.590104
vn 0.787640 0.177205 0.590104
vn 0.787640 0.177205 0.590104
vn 0.752109 0.595100 -0.283173
vn 0.752109 0.595100 -0.283173
vn 0.752109 0.595100 -0.283173
vn 0.691129 -0.338772 0.638416
vn 0.691129 -0.338772 0.638416
vn 0.691129 -0.338772 0.638416
vn 0.791157 0.582790 0.185544
vn 0.791157 0.582790 0.185544
vn 0.791157 0.582790 0.185544
vn 0.801522 -0.570416 -0.179411
vn 0.801522 -0.570416 -0.179411
vn 0.801522 -0.570416 -0.179411
vn 0.764638 0.272161 -0.584172
vn 0.764638 0.272161 -0.584172
vn 0.764638 0.272161 -0.584172
vn 0.763939 -0.588929 0.263743
vn 0.763939 -0.588929 0.263743
vn 0.763939 -0.588929 0.263743
vn 0.783121 -0.179805 -0.595308
vn 0.783121 -0.179805 -0.595308
vn 0.783121 -0.179805 -0.595308
vn 0.787640 -0.177205 0.590103
vn 0.787640 -0.177205 0.590103
vn 0.787640 -0.177205 0.590103
vn 0.752109 -0.595101 -0.283174
vn 0.752109 -0.595101 -0.283174
vn 0.752109 -0.595101 -0.283174
vn 0.691128 0.338773 0.638416
vn 0.691128 0.338773 0.638416
vn 0.691128 0.338773 0.638416
vn 0.791157 -0.582790 0.185544
vn 0.791157 -0.582790 0.185544
vn 0.791157 -0.582790 0.185544
vn -0.801522 0.570416 -0.179412
vn -0.801522 0.570416 -0.179412
vn -0.801522 0.570416 -0.179412
vn -0.764638 -0.272160 -0.584172
vn -0.764638 -0.272160 -0.584172
vn -0.764638 -0.272160 -0.584172
vn -0.763939 0.588928 0.263743
vn -0.763939 0.588928 0.263743
vn -0.763939 0.588928 0.263743
vn -0.783121 0.179805 -0.595309
vn -0.783121 0.179805 -0.595309
vn -0.783121 0.179805 -0.595309
vn -0.787640 0.177205 0.590103
vn -0.787640 0.177205 0.590104
vn -0.787640 0.177205 0.590103
vn -0.752109 0.595100 -0.283174
vn -0.752109 0.595100 -0.283174
vn -0.752109 0.595100 -0.283174
vn -0.691129 -0.338772 0.638416
vn -0.691129 -0.338772 0.638416
vn -0.691129 -0.338772 0.638416
vn -0.791157 0.582790 0.185544
vn -0.791157 0.582790 0.185544
vn -0.791157 0.582790 0.185544
vn -0.801522 -0.570416 -0.179411
vn -0.801522 -0.570416 -0.179411
vn -0.801522 -0.570416 -0.179411
vn -0.764638 0.272161 -0.584172
vn -0.764638 0.272161 -0.584172
vn -0.764638 0.272161 -0.584172
vn -0.763939 -0.588929 0.263743
vn -0.763939 -0.588929 0.263743
vn -0.763939 -0.588929 0.263743
vn -0.783121 -0.179805 -0.595308
vn -0.783121 -0.179805 -0.595308
vn -0.783121 -0.179805 -0.595308
vn -0.787640 -0.177205 0.590103
vn -0.787640 -0.177205 0.590103
vn -0.787640 -0.177205 0.590103
vn -0.752109 -0.595101 -0.283174
vn -0.752109 -0.595101 -0.283174
vn -0.752109 -0.595101 -0.283174
vn -0.691128 0.338773 0.638416
vn -0.691128 0.338773 0.638416
vn -0.691128 0.338773 0.638416
vn -0.791157 -0.582790 0.185544
vn -0.791157 -0.582790 0.185544
vn -0.791157 -0.582790 0.185544
s off
g polySurface1 body
usemtl aiToon12SG
f 3/6/1 4/7/2 1/1/3
f 4/7/4 5/8/5 1/1/6
f 5/8/7 6/9/8 1/1/9
f 6/9/10 7/10/11 1/1/12
f 7/10/13 8/11/14 1/1/15
f 8/11/16 9/12/17 1/1/18
f 9/12/19 10/13/20 1/1/21
f 10/13/22 2/4/23 1/1/24
f 11/14/25 3/5/26 1/2/27
f 12/15/28 11/14/29 1/2/30
f 13/16/31 12/15/32 1/2/33
f 14/17/34 13/16/35 1/2/36
f 15/18/37 14/17/38 1/2/39
f 16/19/40 15/18/41 1/2/42
f 17/20/43 16/19/44 1/2/45
f 2/3/46 17/20/47 1/2/48
f 3/21/49 18/23/50 4/22/51
f 4/22/52 18/23/53 5/24/54
f 5/24/55 18/23/56 6/25/57
f 6/25/58 18/23/59 7/26/60
f 7/26/61 18/23/62 8/27/63
f 8/27/64 18/23/65 9/28/66
f 9/28/67 18/23/68 10/29/69
f 10/29/70 18/23/71 2/30/72
f 11/31/73 18/33/74 3/32/75
f 12/34/76 18/33/77 11/31/78
f 13/35/79 18/33/80 12/34/81
f 14/36/82 18/33/83 13/35/84
f 15/37/85 18/33/86 14/36/87
f 16/38/88 18/33/89 15/37/90
f 17/39/91 18/33/92 16/38/93
f 2/40/94 18/33/95 17/39/96
